PathFileType	4	(X/Y/Z)	/Users/itak/Documents/Research/Walk-IL/dataset/trc/00036_00004.trc
DataRate	CameraRate	NumFrames	NumMarkers	Units	OrigDataRate	OrigDataStartFrame	OrigNumFrames
100.000000	100.000000	4	53	mm	100.000000	181	726
Frame#	Time	RPSI			LPSI			L3			STRN			T10			C7			CLAV			RBAK			LBAK			LSHO			LUPA			LAEL			LAOL			LWTS			LWPS			LFRA			LIFD			LHPS			LHTS			RSHO			RUPA			RAEL			RAOL			RWTS			RWPS			RFRA			RIFD			RHTS			RHPS			RBHD			LFHD			RFHD			LBHD			LHIP			RHIP			RASI			LASI			LKNE			LTHI			LANK			LTIP			LTOE			LMT1			LMT5			LHEE			RKNE			RTHI			RANK			RTIP			RTOE			RMT1			RMT5			RHEE			
		X1	Y1	Z1	X2	Y2	Z2	X3	Y3	Z3	X4	Y4	Z4	X5	Y5	Z5	X6	Y6	Z6	X7	Y7	Z7	X8	Y8	Z8	X9	Y9	Z9	X10	Y10	Z10	X11	Y11	Z11	X12	Y12	Z12	X13	Y13	Z13	X14	Y14	Z14	X15	Y15	Z15	X16	Y16	Z16	X17	Y17	Z17	X18	Y18	Z18	X19	Y19	Z19	X20	Y20	Z20	X21	Y21	Z21	X22	Y22	Z22	X23	Y23	Z23	X24	Y24	Z24	X25	Y25	Z25	X26	Y26	Z26	X27	Y27	Z27	X28	Y28	Z28	X29	Y29	Z29	X30	Y30	Z30	X31	Y31	Z31	X32	Y32	Z32	X33	Y33	Z33	X34	Y34	Z34	X35	Y35	Z35	X36	Y36	Z36	X37	Y37	Z37	X38	Y38	Z38	X39	Y39	Z39	X40	Y40	Z40	X41	Y41	Z41	X42	Y42	Z42	X43	Y43	Z43	X44	Y44	Z44	X45	Y45	Z45	X46	Y46	Z46	X47	Y47	Z47	X48	Y48	Z48	X49	Y49	Z49	X50	Y50	Z50	X51	Y51	Z51	X52	Y52	Z52	X53	Y53	Z53	

182	1.81	-141.2953796386719	1059.376586914062	786.8815307617188	-213.5838928222656	1064.463745117188	933.9081420898438	-176.0131225585938	1126.984252929688	865.9800415039062	-369.8409118652344	1301.5400390625	725.5924682617188	-156.8098602294922	1271.117431640625	866.2290649414062	-208.5965728759766	1532.646362304688	811.7689819335938	-334.758544921875	1428.975463867188	733.490478515625	-118.4487152099609	1392.226318359375	795.08544921875	-245.5216827392578	1508.2509765625	907.5801391601562	-370.5698547363281	1513.669677734375	911.0289306640625	-379.5006408691406	1408.72607421875	1017.254638671875	-376.5341796875	1202.902099609375	1088.364868164062	-280.2662963867188	1191.203857421875	1047.2216796875	-395.5539855957031	933.398193359375	1042.820678710938	-361.4624633789062	937.8721313476562	1124.135864257812	-382.6117858886719	1088.078002929688	1109.69921875	-387.5322570800781	744.8974609375	1046.9384765625	-379.156494140625	843.0755004882812	1120.046142578125	-411.0871276855469	838.2245483398438	1057.39892578125	-170.9239654541016	1492.338012695312	631.138427734375	-116.145637512207	1418.444580078125	592.166748046875	-61.47591400146484	1154.57861328125	630.0338745117188	-121.5588531494141	1134.799560546875	707.9261474609375	-217.9637451171875	913.825927734375	581.486328125	-131.7461853027344	882.7610473632812	571.2107543945312	-68.42422485351562	1074.820922851562	614.4298095703125	-279.9384765625	738.3944091796875	583.3821411132812	-257.1932067871094	811.5048828125	551.10546875	-184.8936767578125	789.7178344726562	547.8954467773438	-336.1860656738281	1712.38427734375	786.9490966796875	-289.2670593261719	1687.453369140625	574.5252685546875	-380.3033447265625	1696.84716796875	610.7330322265625	-206.0904693603516	1695.595581054688	727.9686889648438	-352.3853149414062	964.3910522460938	995.7774658203125	-204.0212707519531	933.8557739257812	657.8231811523438	-326.2294006347656	974.2599487304688	671.4434814453125	-423.0825500488281	1008.445678710938	882.68603515625	-483.1580200195312	521.67919921875	936.902099609375	-443.0811462402344	663.7865600585938	978.3651733398438	-170.9885864257812	196.2914428710938	1181.014038085938	-325.8641052246094	368.1250610351562	1078.208862304688	-308.8262634277344	55.59055328369141	1076.950805664062	-259.630615234375	90.54808807373047	1072.711059570312	-269.7445068359375	122.9893569946289	1173.708251953125	-101.6167602539062	234.3671417236328	1147.886596679688	-315.5497131347656	512.1919555664062	724.37841796875	-249.04638671875	769.2427978515625	658.5123291015625	-286.0910949707031	42.68019104003906	878.8109741210938	-312.406982421875	386.5675048828125	755.7196044921875	-497.0838012695312	44.92160415649414	772.4798583984375	-465.0242309570312	51.02177429199219	833.396240234375	-391.0589599609375	43.4655876159668	771.7987060546875	-269.4825439453125	46.11037445068359	947.0234985351562	
183	1.82	-147.1093292236328	1059.635864257812	783.2979125976562	-222.2438659667969	1064.638305664062	928.9231567382812	-183.3140869140625	1126.964477539062	861.738037109375	-374.3421020507812	1302.296752929688	718.766357421875	-163.8012847900391	1271.10498046875	862.494384765625	-214.2712249755859	1532.955810546875	808.1516723632812	-339.4333801269531	1429.730102539062	727.6229248046875	-124.0295257568359	1392.468994140625	792.2937622070312	-252.5698547363281	1508.2021484375	903.3065185546875	-377.5985717773438	1513.786865234375	905.0333862304688	-388.0989685058594	1408.508666992188	1010.710571289062	-386.2583618164062	1202.53662109375	1081.397216796875	-289.3924865722656	1190.924560546875	1041.524169921875	-404.7749938964844	933.1060180664062	1035.278076171875	-371.7933044433594	937.4239501953125	1117.094604492188	-392.5894775390625	1087.6640625	1102.493530273438	-396.8247985839844	744.60107421875	1039.273803710938	-389.3334655761719	842.5592651367188	1112.492065429688	-420.5306396484375	837.9501342773438	1049.545288085938	-173.8418121337891	1493.298583984375	627.9750366210938	-118.67431640625	1419.437866210938	589.5045776367188	-65.430908203125	1155.12158203125	627.4512939453125	-126.5432662963867	1135.457641601562	704.5090942382812	-223.7845458984375	916.2122802734375	575.7124633789062	-137.8906097412109	884.248779296875	566.4048461914062	-72.87606811523438	1075.394653320312	611.4008178710938	-287.796630859375	741.5631713867188	575.8779296875	-263.78515625	814.5704956054688	544.3043212890625	-191.6739196777344	791.955322265625	541.8605346679688	-341.3074340820312	1713.183227539062	781.6075439453125	-292.7271118164062	1687.934204101562	569.6095581054688	-384.0430297851562	1697.253295898438	605.0897827148438	-210.7423095703125	1696.531127929688	723.69140625	-362.7214660644531	964.8741455078125	987.7896728515625	-206.8931579589844	933.6556396484375	653.3768920898438	-329.5032653808594	974.3587036132812	664.1452026367188	-430.66259765625	1009.0458984375	873.2300415039062	-495.6817932128906	523.6272583007812	921.5877075195312	-455.8929443359375	664.8515625	965.783447265625	-200.2021331787109	188.1632995605469	1171.859375	-346.4189758300781	365.6041259765625	1066.290649414062	-341.300537109375	54.79117202758789	1062.77587890625	-290.3701477050781	87.40561676025391	1060.20458984375	-301.9330139160156	119.6782684326172	1161.154541015625	-128.2001037597656	223.4322662353516	1141.061889648438	-316.2050476074219	511.4051208496094	722.5512084960938	-251.4050903320312	768.6207885742188	654.7704467773438	-286.1286926269531	42.71165084838867	878.8299560546875	-312.7794189453125	386.2149658203125	754.688232421875	-497.1144714355469	44.88966751098633	772.4889526367188	-465.0051879882812	51.0211296081543	833.3765258789062	-391.0371398925781	43.44727325439453	771.7620239257812	-269.4819641113281	46.2593879699707	947.0670776367188	
184	1.83	-152.97216796875	1059.810424804688	779.748291015625	-230.904541015625	1064.7529296875	923.910400390625	-190.6231079101562	1126.841552734375	857.5037231445312	-378.7831420898438	1302.948974609375	711.9097900390625	-170.7944946289062	1270.995971679688	858.7578735351562	-219.9328765869141	1533.1669921875	804.5368041992188	-344.0284729003906	1430.358032226562	721.7554931640625	-129.6235809326172	1392.616943359375	789.5071411132812	-259.6163940429688	1508.046752929688	898.9950561523438	-384.6283569335938	1513.786499023438	898.9701538085938	-396.70263671875	1408.167236328125	1004.068359375	-396.0032653808594	1202.05810546875	1074.318481445312	-298.5767822265625	1190.521484375	1035.73828125	-413.9885864257812	932.690673828125	1027.625122070312	-382.1365051269531	936.8662109375	1109.939086914062	-402.60009765625	1087.14013671875	1095.16796875	-406.0357971191406	744.1779174804688	1031.557739257812	-399.5473937988281	841.9554443359375	1104.832275390625	-429.9609680175781	837.5625610351562	1041.570678710938	-176.744873046875	1494.146362304688	624.8455810546875	-121.1861190795898	1420.3271484375	586.8976440429688	-69.33661651611328	1155.570434570312	624.8677978515625	-131.4190673828125	1136.023803710938	701.1027221679688	-229.4022674560547	918.453125	570.0115966796875	-143.837646484375	885.6342163085938	561.6279907226562	-77.25868988037109	1075.882446289062	608.3844604492188	-295.299560546875	744.5716552734375	568.5109252929688	-270.1081848144531	817.4667358398438	537.6148071289062	-198.1771392822266	794.0718383789062	535.8994750976562	-346.4084777832031	1713.862182617188	776.2767944335938	-296.1571350097656	1688.331420898438	564.714111328125	-387.7419738769531	1697.5751953125	599.4638061523438	-215.3678741455078	1697.348266601562	719.434814453125	-373.0099487304688	965.2840576171875	979.6693115234375	-209.7046508789062	933.4085083007812	648.9896240234375	-332.65673828125	974.3646240234375	656.9197998046875	-438.1512145996094	1009.564270019531	863.71435546875	-507.6525268554688	525.5606689453125	906.1421508789062	-468.337158203125	665.8889770507812	952.9890747070312	-229.6856536865234	179.7441253662109	1161.435913085938	-366.8279418945312	362.8591918945312	1053.758056640625	-373.7117614746094	54.13067626953125	1047.069580078125	-321.1763000488281	84.27988433837891	1046.236206054688	-334.1625671386719	116.2965545654297	1147.163452148438	-155.2503814697266	212.033447265625	1133.047485351562	-316.8162841796875	510.6042785644531	720.7273559570312	-253.6842803955078	767.9676513671875	651.0926513671875	-286.172607421875	42.75986862182617	878.845947265625	-313.1404418945312	385.8665161132812	753.69140625	-497.158935546875	44.84466171264648	772.5020141601562	-464.9867248535156	51.0063591003418	833.3601684570312	-391.02490234375	43.43107986450195	771.7288208007812	-269.5514526367188	46.40005493164062	947.1390380859375	
185	1.84	-158.8760833740234	1059.902709960938	776.2410278320312	-239.5701293945312	1064.802490234375	918.8731079101562	-197.9259948730469	1126.615966796875	853.2808227539062	-383.1715087890625	1303.488891601562	705.0252075195312	-177.7930450439453	1270.792358398438	855.0225219726562	-225.5751037597656	1533.279663085938	800.9136352539062	-348.5574340820312	1430.856201171875	715.8837890625	-135.2386016845703	1392.66845703125	786.71875	-266.6670837402344	1507.785278320312	894.6346435546875	-391.6592407226562	1513.670288085938	892.829345703125	-405.3098449707031	1407.705322265625	997.3228759765625	-405.7628173828125	1201.469848632812	1067.117919921875	-307.8178405761719	1189.993530273438	1029.847778320312	-423.194580078125	932.15478515625	1019.864013671875	-392.4782409667969	936.2073974609375	1102.662353515625	-412.6430358886719	1086.514526367188	1087.712280273438	-415.1689453125	743.62939453125	1023.797119140625	-409.767578125	841.273681640625	1097.088989257812	-439.3725280761719	837.0612182617188	1033.486572265625	-179.6529541015625	1494.87353515625	621.7399291992188	-123.6941680908203	1421.101928710938	584.3350830078125	-73.20122528076172	1155.921875	622.28076171875	-136.2020111083984	1136.4873046875	697.696533203125	-234.8215789794922	920.5333862304688	564.3692016601562	-149.5636749267578	886.9059448242188	556.8692626953125	-81.56643676757812	1076.277099609375	605.3721313476562	-302.4364013671875	747.3994750976562	561.2744750976562	-276.1501159667969	820.167236328125	531.031494140625	-204.4056701660156	796.046875	530.003173828125	-351.499755859375	1714.41357421875	770.9456176757812	-299.5618896484375	1688.638549804688	559.8294677734375	-391.4062805175781	1697.806884765625	593.8429565429688	-219.9739379882812	1698.036499023438	715.1903076171875	-383.2438354492188	965.6056518554688	971.4114990234375	-212.4436187744141	933.1141967773438	644.6622314453125	-335.6848449707031	974.2713623046875	649.7648315429688	-445.53955078125	1009.988159179688	854.135498046875	-519.099853515625	527.4715576171875	890.5899047851562	-480.4189758300781	666.8892822265625	940.0177001953125	-259.3756713867188	171.1258850097656	1149.688110351562	-387.1116638183594	359.9170532226562	1040.574584960938	-405.7644348144531	53.61614608764648	1029.715087890625	-351.8027648925781	81.23787689208984	1030.71240234375	-366.2630920410156	112.841796875	1131.645629882812	-182.7375335693359	200.3596801757812	1123.820068359375	-317.3977661132812	509.7900695800781	718.8937377929688	-255.8764801025391	767.281494140625	647.4813232421875	-286.2245483398438	42.82980346679688	878.8621826171875	-313.5107116699219	385.524169921875	752.7166137695312	-497.2183837890625	44.78451156616211	772.5198974609375	-464.9709777832031	50.97594451904297	833.3465576171875	-391.0235900878906	43.41708374023438	771.6991577148438	-269.698974609375	46.53041839599609	947.2407836914062	
